<svg id="visual" viewBox="0 0 900 450" width="900" height="450" xmlns="http://www.w3.org/2000/svg" xmlns:xlink="http://www.w3.org/1999/xlink" version="1.1"><rect x="0" y="0" width="900" height="450" fill="#fff"></rect><defs><linearGradient id="grad1_0" x1="50%" y1="0%" x2="100%" y2="100%"><stop offset="10%" stop-color="#ffffff" stop-opacity="1"></stop><stop offset="90%" stop-color="#ffffff" stop-opacity="1"></stop></linearGradient></defs><defs><linearGradient id="grad2_0" x1="0%" y1="0%" x2="50%" y2="100%"><stop offset="10%" stop-color="#ffffff" stop-opacity="1"></stop><stop offset="90%" stop-color="#ffffff" stop-opacity="1"></stop></linearGradient></defs><g transform="translate(900, 0)"><path d="M0 67.5C-9.3 67.1 -18.6 66.6 -25.8 62.4C-33 58.1 -38.1 50 -43.1 43.1C-48.2 36.3 -53.2 30.7 -57.3 23.7C-61.3 16.7 -64.4 8.4 -67.5 0L0 0Z" fill="#1565c0"></path></g><g transform="translate(0, 450)"><path d="M0 -67.5C8.7 -65.6 17.4 -63.7 24.9 -60.1C32.4 -56.4 38.7 -51 45.3 -45.3C51.8 -39.5 58.6 -33.4 62.4 -25.8C66.1 -18.2 66.8 -9.1 67.5 0L0 0Z" fill="#1565c0"></path></g></svg>