<svg width="528" height="531" viewBox="0 0 528 531" fill="none" xmlns="http://www.w3.org/2000/svg">
<path d="M396.58 68.181C437.48 99.481 475.68 129.981 499.98 170.481C524.18 211.081 534.38 261.681 521.78 304.881C509.18 348.181 473.78 384.081 441.38 423.681C408.88 463.281 379.38 506.581 338.98 522.781C298.68 538.981 247.58 528.081 201.48 510.181C155.28 492.281 113.98 467.181 76.7803 433.481C39.5803 399.781 6.48026 357.381 0.880261 311.681C-4.71974 265.981 17.2803 216.881 41.8803 171.681C66.5803 126.481 93.9803 85.181 132.18 52.581C170.38 20.081 219.38 -3.71902 265.68 0.480975C311.98 4.68097 355.58 36.881 396.58 68.181Z" fill="#4A5CFF"/>
</svg>
