<svg id="visual" viewBox="0 0 1366 768" width="1366" height="768" xmlns="http://www.w3.org/2000/svg" xmlns:xlink="http://www.w3.org/1999/xlink" version="1.1"><rect x="0" y="0" width="1366" height="768" fill="#fff"></rect><defs><linearGradient id="grad1_0" x1="43.8%" y1="0%" x2="100%" y2="100%"><stop offset="14.427083333333334%" stop-color="#ffffff" stop-opacity="1"></stop><stop offset="85.57291666666667%" stop-color="#ffffff" stop-opacity="1"></stop></linearGradient></defs><defs><linearGradient id="grad2_0" x1="0%" y1="0%" x2="56.2%" y2="100%"><stop offset="14.427083333333334%" stop-color="#ffffff" stop-opacity="1"></stop><stop offset="85.57291666666667%" stop-color="#ffffff" stop-opacity="1"></stop></linearGradient></defs><g transform="translate(1366, 0)"><path d="M0 115.2C-15.1 112.8 -30.1 110.4 -43.2 104.4C-56.3 98.4 -67.5 88.8 -78.5 78.5C-89.5 68.2 -100.3 57.3 -106.4 44.1C-112.5 30.9 -113.9 15.4 -115.2 0L0 0Z" fill="#1565c0"></path></g><g transform="translate(0, 768)"><path d="M0 -115.2C15.6 -114 31.2 -112.8 44.1 -106.4C57 -100.1 67.3 -88.7 77.8 -77.8C88.3 -66.9 99 -56.5 105.3 -43.6C111.6 -30.7 113.4 -15.4 115.2 0L0 0Z" fill="#1565c0"></path></g></svg>