<svg id="visual" viewBox="0 0 1366 768" width="1366" height="768" xmlns="http://www.w3.org/2000/svg" xmlns:xlink="http://www.w3.org/1999/xlink" version="1.1"><rect x="0" y="0" width="1366" height="768" fill="#fff"></rect><defs><linearGradient id="grad1_0" x1="43.8%" y1="100%" x2="100%" y2="0%"><stop offset="14.427083333333334%" stop-color="#ffffff" stop-opacity="1"></stop><stop offset="85.57291666666667%" stop-color="#ffffff" stop-opacity="1"></stop></linearGradient></defs><defs><linearGradient id="grad2_0" x1="0%" y1="100%" x2="56.2%" y2="0%"><stop offset="14.427083333333334%" stop-color="#ffffff" stop-opacity="1"></stop><stop offset="85.57291666666667%" stop-color="#ffffff" stop-opacity="1"></stop></linearGradient></defs><g transform="translate(1366, 768)"><path d="M-115.2 0C-112.8 -15.1 -110.4 -30.1 -104.4 -43.2C-98.4 -56.3 -88.8 -67.5 -78.5 -78.5C-68.2 -89.5 -57.3 -100.3 -44.1 -106.4C-30.9 -112.5 -15.4 -113.9 0 -115.2L0 0Z" fill="#f44336"></path></g><g transform="translate(0, 0)"><path d="M115.2 0C114 15.6 112.8 31.2 106.4 44.1C100.1 57 88.7 67.3 77.8 77.8C66.9 88.3 56.5 99 43.6 105.3C30.7 111.6 15.4 113.4 0 115.2L0 0Z" fill="#f44336"></path></g></svg>