<svg id="visual" viewBox="0 0 960 540" width="960" height="540" xmlns="http://www.w3.org/2000/svg" xmlns:xlink="http://www.w3.org/1999/xlink" version="1.1"><rect x="0" y="0" width="960" height="540" fill="#fff"></rect><defs><linearGradient id="grad1_0" x1="43.8%" y1="0%" x2="100%" y2="100%"><stop offset="14.444444444444446%" stop-color="#ffffff" stop-opacity="1"></stop><stop offset="85.55555555555554%" stop-color="#ffffff" stop-opacity="1"></stop></linearGradient></defs><defs><linearGradient id="grad2_0" x1="0%" y1="0%" x2="56.3%" y2="100%"><stop offset="14.444444444444446%" stop-color="#ffffff" stop-opacity="1"></stop><stop offset="85.55555555555554%" stop-color="#ffffff" stop-opacity="1"></stop></linearGradient></defs><g transform="translate(960, 0)"><path d="M0 243C-31.7 239.4 -63.3 235.9 -93 224.5C-122.7 213.1 -150.4 193.9 -169.7 169.7C-189 145.5 -199.8 116.4 -210.6 87.3C-221.5 58.1 -232.2 29.1 -243 0L0 0Z" fill="#1565c0"></path></g><g transform="translate(0, 540)"><path d="M0 -243C31.4 -236.3 62.8 -229.6 89.5 -216.2C116.3 -202.8 138.3 -182.6 161.9 -161.9C185.5 -141.3 210.7 -120.1 224.5 -93C238.3 -65.9 240.6 -33 243 0L0 0Z" fill="#1565c0"></path></g></svg>